<svg width="134" height="40" viewBox="0 0 134 40" fill="none" xmlns="http://www.w3.org/2000/svg">
<path fill-rule="evenodd" clip-rule="evenodd" d="M20 40.0001C31.0457 40.0001 40 31.0458 40 20.0001C40 8.95443 31.0457 0.00012207 20 0.00012207C8.9543 0.00012207 0 8.95443 0 20.0001C0 31.0458 8.9543 40.0001 20 40.0001ZM19 11.9996H13V17.9996H19V11.9996ZM31 11.9996H25V17.9996H31V11.9996ZM19 20.9996H13V25.9996C13 27.6663 15 32.9996 22 32.9996C29.2 32.9996 31 27.6663 31 25.9996V20.9996H25V25.9996C25 26.6663 24 27.9996 22 27.9996C20 27.9996 19 26.6663 19 25.9996V20.9996ZM75.7125 8.5517V19.3746H79.1581V8.5517H75.7125ZM76.1916 6.8113C76.5392 7.13073 76.9549 7.29044 77.4388 7.29044C77.9273 7.29044 78.343 7.13073 78.686 6.8113C79.0336 6.48717 79.2074 6.09729 79.2074 5.64163C79.2074 5.19068 79.0336 4.80549 78.686 4.48606C78.343 4.16194 77.9273 3.99988 77.4388 3.99988C76.9549 3.99988 76.5392 4.16194 76.1916 4.48606C75.844 4.80549 75.6702 5.19068 75.6702 5.64163C75.6702 6.09729 75.844 6.48717 76.1916 6.8113ZM57.4699 4.94406H60.9508V14.2521C60.9508 15.3278 60.6947 16.2649 60.1827 17.0635C59.6707 17.8573 58.9567 18.4727 58.0407 18.9096C57.1247 19.3417 56.0607 19.5578 54.8488 19.5578C53.6227 19.5578 52.5517 19.3417 51.6357 18.9096C50.7197 18.4727 50.0081 17.8573 49.5007 17.0635C48.9934 16.2649 48.7397 15.3278 48.7397 14.2521V4.94406H52.2276V13.9491C52.2276 14.447 52.3356 14.8909 52.5517 15.2808C52.7725 15.6707 53.0802 15.976 53.4748 16.1968C53.8694 16.4176 54.3274 16.528 54.8488 16.528C55.3702 16.528 55.8258 16.4176 56.2157 16.1968C56.6103 15.976 56.918 15.6707 57.1388 15.2808C57.3596 14.8909 57.4699 14.447 57.4699 13.9491V4.94406ZM66.5824 13.2022V19.3746H63.1368V8.5517H66.4133V10.5387H66.5331C66.7727 9.87638 67.1813 9.35731 67.7591 8.98152C68.3369 8.60102 69.0251 8.41078 69.8236 8.41078C70.5846 8.41078 71.2446 8.58224 71.8036 8.92515C72.3673 9.26336 72.8042 9.73781 73.1142 10.3485C73.4289 10.9544 73.5839 11.6638 73.5792 12.4764V19.3746H70.1337V13.1528C70.1384 12.5516 69.9857 12.0818 69.6757 11.7436C69.3703 11.4054 68.9452 11.2363 68.4003 11.2363C68.0386 11.2363 67.7192 11.3161 67.442 11.4759C67.1696 11.6309 66.9582 11.854 66.8079 12.1452C66.6623 12.4365 66.5871 12.7888 66.5824 13.2022ZM81.3512 19.3746V4.94406H87.3122C88.3926 4.94406 89.3251 5.13901 90.1096 5.5289C90.8987 5.91409 91.507 6.46839 91.9345 7.19179C92.362 7.9105 92.5757 8.76309 92.5757 9.74955C92.5757 10.7501 92.3573 11.6003 91.9204 12.3003C91.4867 12.9904 90.8725 13.5186 90.0777 13.8847L93.069 19.3746H89.264L86.6255 14.4353H84.839V19.3746H81.3512ZM86.5583 11.6872H84.839V7.75549H86.5583C87.0797 7.75549 87.5189 7.83065 87.8759 7.98096C88.2329 8.12658 88.503 8.34736 88.6862 8.6433C88.8694 8.93454 88.961 9.30329 88.961 9.74955C88.961 10.1958 88.8694 10.5622 88.6862 10.8488C88.503 11.1306 88.2329 11.342 87.8759 11.4829C87.5236 11.6191 87.0844 11.6872 86.5583 11.6872ZM96.4035 18.9096C97.2256 19.3558 98.2027 19.579 99.3347 19.579C100.279 19.579 101.11 19.4357 101.829 19.1491C102.548 18.8579 103.128 18.4516 103.569 17.9302C104.016 17.404 104.305 16.7863 104.436 16.077L101.272 15.9854C101.183 16.225 101.049 16.427 100.871 16.5914C100.692 16.7558 100.479 16.8803 100.23 16.9648C99.9807 17.0494 99.7035 17.0917 99.3982 17.0917C98.9566 17.0917 98.5761 17.0001 98.2567 16.8169C97.9373 16.6337 97.6906 16.3776 97.5168 16.0488C97.343 15.7153 97.2561 15.3278 97.2561 14.8862V14.7946H104.471V13.935C104.471 13.0472 104.342 12.2603 104.084 11.5745C103.826 10.884 103.464 10.3038 102.999 9.8341C102.534 9.36436 101.982 9.0097 101.343 8.77013C100.704 8.53056 99.9994 8.41078 99.2291 8.41078C98.1393 8.41078 97.1927 8.64565 96.3895 9.11539C95.5862 9.58044 94.9638 10.2334 94.5222 11.0742C94.0807 11.9104 93.8599 12.8874 93.8599 14.0054C93.8599 15.1563 94.0783 16.1498 94.5152 16.986C94.9567 17.8174 95.5862 18.4586 96.4035 18.9096ZM97.2582 12.7935C97.2753 12.4451 97.3686 12.1328 97.538 11.8564C97.7165 11.5604 97.9584 11.3279 98.2637 11.1588C98.5691 10.985 98.9143 10.8981 99.2995 10.8981C99.68 10.8981 100.016 10.9803 100.307 11.1447C100.603 11.3044 100.836 11.5275 101.005 11.8141C101.174 12.1006 101.261 12.4271 101.265 12.7935H97.2582ZM106.231 23.4332V8.5517H109.642V10.4048H109.747C109.888 10.076 110.088 9.75895 110.346 9.45361C110.609 9.14828 110.943 8.89931 111.347 8.70672C111.755 8.50943 112.244 8.41078 112.812 8.41078C113.564 8.41078 114.266 8.60807 114.919 9.00266C115.577 9.39724 116.108 10.0056 116.512 10.8276C116.916 11.6497 117.118 12.6972 117.118 13.9702C117.118 15.1962 116.923 16.2226 116.533 17.0494C116.147 17.8761 115.626 18.4962 114.968 18.9096C114.315 19.3229 113.59 19.5296 112.791 19.5296C112.246 19.5296 111.774 19.4404 111.375 19.2619C110.976 19.0834 110.64 18.8485 110.367 18.5573C110.1 18.266 109.893 17.9536 109.747 17.6201H109.677V23.4332H106.231ZM109.606 13.9632C109.606 14.5456 109.684 15.053 109.839 15.4851C109.999 15.9173 110.226 16.2532 110.522 16.4927C110.823 16.7276 111.182 16.845 111.6 16.845C112.023 16.845 112.382 16.7276 112.678 16.4927C112.974 16.2532 113.197 15.9173 113.348 15.4851C113.503 15.053 113.58 14.5456 113.58 13.9632C113.58 13.3807 113.503 12.8757 113.348 12.4482C113.197 12.0208 112.974 11.6896 112.678 11.4547C112.387 11.2199 112.028 11.1024 111.6 11.1024C111.178 11.1024 110.818 11.2175 110.522 11.4477C110.226 11.6779 109.999 12.0067 109.839 12.4341C109.684 12.8616 109.606 13.3713 109.606 13.9632ZM69.8607 24.9726V35.7955H73.3063V24.9726H69.8607ZM70.3399 23.2322C70.6875 23.5516 71.1032 23.7113 71.587 23.7113C72.0756 23.7113 72.4913 23.5516 72.8342 23.2322C73.1818 22.9081 73.3556 22.5182 73.3556 22.0625C73.3556 21.6116 73.1818 21.2264 72.8342 20.907C72.4913 20.5828 72.0756 20.4208 71.587 20.4208C71.1032 20.4208 70.6875 20.5828 70.3399 20.907C69.9923 21.2264 69.8185 21.6116 69.8185 22.0625C69.8185 22.5182 69.9923 22.9081 70.3399 23.2322ZM48 21.365L52.1995 35.7955H55.5535L58.1535 27.0442H58.2663L60.8663 35.7955H64.2273L68.4198 21.365H64.5726L62.3883 30.8421H62.2685L59.7812 21.365H56.6386L54.1513 30.8209H54.0315L51.8543 21.365H48ZM78.945 29.6231V35.7955H75.4994V24.9726H78.7759V26.9596H78.8957C79.1353 26.2973 79.5439 25.7782 80.1217 25.4024C80.6995 25.0219 81.3877 24.8317 82.1862 24.8317C82.9472 24.8317 83.6072 25.0031 84.1662 25.346C84.7299 25.6843 85.1668 26.1587 85.4768 26.7694C85.7915 27.3753 85.9465 28.0847 85.9418 28.8973V35.7955H82.4963V29.5737C82.501 28.9725 82.3483 28.5027 82.0383 28.1645C81.7329 27.8263 81.3078 27.6572 80.7629 27.6572C80.4012 27.6572 80.0818 27.737 79.8046 27.8968C79.5322 28.0518 79.3208 28.2749 79.1705 28.5661C79.0249 28.8574 78.9497 29.2097 78.945 29.6231ZM89.8507 35.3305C90.5037 35.7438 91.2294 35.9505 92.028 35.9505C92.5729 35.9505 93.045 35.8613 93.4443 35.6828C93.8482 35.5043 94.1841 35.2694 94.4519 34.9782C94.7196 34.6869 94.9263 34.3745 95.0719 34.041H95.1776V35.7955H98.588V21.365H95.1424V26.8257H95.0719C94.9357 26.4969 94.7361 26.1798 94.473 25.8745C94.2099 25.5692 93.8764 25.3202 93.4724 25.1276C93.0685 24.9303 92.5823 24.8317 92.0139 24.8317C91.2576 24.8317 90.5506 25.029 89.893 25.4236C89.24 25.8181 88.7116 26.4265 88.3076 27.2485C87.9036 28.0706 87.7016 29.1181 87.7016 30.3911C87.7016 31.6171 87.8966 32.6435 88.2865 33.4703C88.6763 34.297 89.1978 34.9171 89.8507 35.3305ZM94.2968 32.9136C94.0009 33.1485 93.6439 33.2659 93.2258 33.2659C92.7984 33.2659 92.4367 33.1485 92.1407 32.9136C91.8495 32.6741 91.6263 32.3382 91.4713 31.906C91.3163 31.4739 91.2388 30.9665 91.2388 30.3841C91.2388 29.8016 91.314 29.2966 91.4643 28.8691C91.6193 28.4417 91.8448 28.1105 92.1407 27.8756C92.4367 27.6408 92.7984 27.5233 93.2258 27.5233C93.6439 27.5233 94.0009 27.6384 94.2968 27.8686C94.5975 28.0988 94.8253 28.4276 94.9803 28.855C95.14 29.2825 95.2199 29.7922 95.2199 30.3841C95.2199 30.9665 95.14 31.4739 94.9803 31.906C94.8206 32.3382 94.5928 32.6741 94.2968 32.9136ZM105.819 35.9999C104.682 35.9999 103.705 35.7673 102.888 35.3023C102.075 34.8325 101.448 34.1796 101.007 33.3434C100.57 32.5026 100.351 31.5279 100.351 30.4193C100.351 29.306 100.57 28.3313 101.007 27.4951C101.448 26.6543 102.075 26.0013 102.888 25.5363C103.705 25.0665 104.682 24.8317 105.819 24.8317C106.956 24.8317 107.931 25.0665 108.743 25.5363C109.561 26.0013 110.188 26.6543 110.625 27.4951C111.066 28.3313 111.287 29.306 111.287 30.4193C111.287 31.5279 111.066 32.5026 110.625 33.3434C110.188 34.1796 109.561 34.8325 108.743 35.3023C107.931 35.7673 106.956 35.9999 105.819 35.9999ZM105.84 33.3998C106.254 33.3998 106.604 33.273 106.89 33.0193C107.177 32.7657 107.395 32.4134 107.545 31.9624C107.7 31.5114 107.778 30.99 107.778 30.3982C107.778 29.7969 107.7 29.2708 107.545 28.8198C107.395 28.3689 107.177 28.0165 106.89 27.7629C106.604 27.5092 106.254 27.3824 105.84 27.3824C105.413 27.3824 105.051 27.5092 104.755 27.7629C104.464 28.0165 104.241 28.3689 104.086 28.8198C103.935 29.2708 103.86 29.7969 103.86 30.3982C103.86 30.99 103.935 31.5114 104.086 31.9624C104.241 32.4134 104.464 32.7657 104.755 33.0193C105.051 33.273 105.413 33.3998 105.84 33.3998ZM112.023 24.9726L114.842 35.7955H118.534L120.225 29.4892H120.345L122.036 35.7955H125.721L128.547 24.9726H125.087L123.671 31.8567H123.579L121.972 24.9726H118.597L117.033 31.906H116.941L115.483 24.9726H112.023Z" fill="#070707"/>
</svg>
