<svg width="16" height="16" viewBox="0 0 16 16" fill="none" xmlns="http://www.w3.org/2000/svg">
<path fill-rule="evenodd" clip-rule="evenodd" d="M9.99978 1.66663C9.81569 1.66663 9.66645 1.81586 9.66645 1.99996C9.66645 2.18405 9.81569 2.33329 9.99978 2.33329H13.2463L7.08668 9.10907C6.96284 9.24529 6.97288 9.45611 7.10911 9.57994C7.24533 9.70378 7.45614 9.69373 7.57998 9.55751L13.6665 2.86218V5.99996C13.6665 6.18405 13.8157 6.33329 13.9998 6.33329C14.1839 6.33329 14.3331 6.18405 14.3331 5.99996V1.99996C14.3331 1.81586 14.1839 1.66663 13.9998 1.66663H9.99978ZM1.99999 2.33329C1.81589 2.33329 1.66666 2.48253 1.66666 2.66663V14C1.66666 14.1841 1.81589 14.3333 1.99999 14.3333H13.3331C13.5172 14.3333 13.6664 14.1841 13.6664 14V9.33329C13.6664 9.1492 13.5172 8.99996 13.3331 8.99996C13.149 8.99996 12.9998 9.1492 12.9998 9.33329V13.6666H2.33332V2.99996H7.33332C7.51742 2.99996 7.66666 2.85072 7.66666 2.66663C7.66666 2.48253 7.51742 2.33329 7.33332 2.33329H1.99999Z" fill="#464748"/>
</svg>
